<svg width="44" height="44" viewBox="0 0 44 44" xmlns="http://www.w3.org/2000/svg" xmlns:xlink="http://www.w3.org/1999/xlink"><title>codepen</title><defs><circle id="a" cx="22" cy="22" r="22"/><mask id="b" x="0" y="0" width="44" height="44" fill="#fff"><use xlink:href="#a"/></mask></defs><g fill="none" fill-rule="evenodd"><use stroke="#000" mask="url(#b)" stroke-width="4" xlink:href="#a"/><path d="M27.273 20.76l-4.285-2.991v-4.81l7.744 5.386-3.459 2.414zM29.051 22l2.473-1.726v3.452L29.05 22zm-6.063 4.231l4.285-2.99 3.46 2.414-7.745 5.387v-4.81zm-6.261-2.99l4.285 2.99v4.81l-7.744-5.386 3.459-2.414zM14.949 22l-2.473 1.726v-3.452L14.95 22zm6.063-4.231l-4.285 2.99-3.46-2.414 7.745-5.387v4.811zm.988 6.67L18.504 22 22 19.56 25.496 22 22 24.44zm11.483-6.274a1.117 1.117 0 0 0-.017-.087l-.016-.05a.732.732 0 0 0-.025-.075l-.022-.05a.928.928 0 0 0-.034-.07l-.028-.047a1.037 1.037 0 0 0-.22-.252l-.045-.035c-.005-.004-.01-.01-.016-.013l-10.512-7.313a.953.953 0 0 0-1.096 0L10.94 17.486l-.016.013c-.016.01-.03.023-.045.035a1.184 1.184 0 0 0-.095.09.923.923 0 0 0-.125.162c-.01.016-.02.031-.028.048a.734.734 0 0 0-.034.068l-.022.05a.97.97 0 0 0-.026.076l-.015.05a1.123 1.123 0 0 0-.017.087l-.008.044a1.01 1.01 0 0 0-.009.135v7.312c0 .046.003.09.009.135l.008.045c.005.028.01.057.017.086.004.017.01.033.015.05.008.025.016.05.026.076.006.017.015.033.022.05a.781.781 0 0 0 .062.115 1.044 1.044 0 0 0 .22.253l.045.035.016.013 10.512 7.312a.956.956 0 0 0 1.096 0l10.512-7.312.016-.013.045-.035a.666.666 0 0 0 .056-.05l.04-.04a.912.912 0 0 0 .152-.21.552.552 0 0 0 .034-.069l.022-.05a.939.939 0 0 0 .025-.075l.016-.05c.007-.029.012-.058.017-.086l.008-.045a1.02 1.02 0 0 0 .009-.135v-7.312c0-.046-.003-.09-.009-.135l-.008-.044z" fill="#000"/></g></svg>