<svg width="44" height="44" viewBox="0 0 44 44" xmlns="http://www.w3.org/2000/svg" xmlns:xlink="http://www.w3.org/1999/xlink"><title>mail</title><defs><circle id="a" cx="22" cy="22" r="22"/><mask id="b" x="0" y="0" width="44" height="44" fill="#fff"><use xlink:href="#a"/></mask></defs><g fill="none" fill-rule="evenodd"><use stroke="#000" mask="url(#b)" stroke-width="4" xlink:href="#a"/><path d="M13.112 18.932c.278.182 1.117.722 2.516 1.62 1.4.897 2.472 1.588 3.217 2.073.082.053.256.168.521.346.266.179.487.323.663.432.176.11.39.233.639.37.25.136.485.238.706.306.22.069.425.102.614.102h.024c.189 0 .393-.033.614-.102a3.85 3.85 0 0 0 .706-.306c.25-.137.463-.26.639-.37.176-.11.396-.253.662-.432.266-.178.44-.293.522-.346.753-.485 2.668-1.716 5.746-3.693a5.632 5.632 0 0 0 1.497-1.398c.402-.545.602-1.117.602-1.716 0-.5-.195-.928-.583-1.284A1.977 1.977 0 0 0 31.036 14H12.964c-.63 0-1.115.197-1.455.59-.34.395-.509.887-.509 1.478 0 .477.225.995.675 1.551.45.557.93.995 1.437 1.313zm18.66 1.216c-2.684 1.681-4.722 2.988-6.113 3.92a28.12 28.12 0 0 1-1.136.744 7.16 7.16 0 0 1-1.16.546c-.483.186-.933.278-1.35.278h-.025c-.418 0-.868-.092-1.35-.278a7.24 7.24 0 0 1-1.16-.546c-.291-.177-.67-.426-1.136-.744-1.105-.75-3.14-2.057-6.102-3.92a6.397 6.397 0 0 1-1.24-.989v9.023c0 .5.192.928.577 1.284a1.97 1.97 0 0 0 1.387.534h18.072a1.97 1.97 0 0 0 1.387-.534c.385-.356.577-.784.577-1.284v-9.023a6.65 6.65 0 0 1-1.228.989z" fill="#000"/></g></svg>