<svg xmlns="http://www.w3.org/2000/svg" width="296" height="426" viewBox="0 0 296 426"><g fill="none" fill-rule="evenodd"><path fill="#FFF" fill-rule="nonzero" d="M4 424s-11.989-92.457 80.427-100.813h22.186s7.262-4.694 12.374-4.694v-13.226s27.693 13.808 56.32.426v11.947s1.216-2.287 13.653 5.973h33.28S293 332.342 293 424H4z"/><path fill="#3B434F" d="M290.262 425.587H.228l1.377-23.53c2.69-45.942 38.887-81.004 80.31-81.004h28.484c-1.848 1.529-3.202 3.114-4.176 4.694H84.43c-39.924 0-74.81 33.748-77.403 77.97l-.956 16.323h283.44l-.53-16.323c-2.593-44.222-37.48-77.97-77.403-77.97h-21.812c-.834-1.568-2.02-3.154-3.676-4.694h27.75c41.423 0 77.62 35.062 80.31 81.004l1.377 23.53h-5.265zm-112.612-99.84h-1.49v-4.694h1.656c-.099 1.22-.163 2.758-.166 4.694zm-60.01-4.694h1.773v4.694h-1.533c-.023-1.993-.114-3.523-.24-4.694z"/><path fill="#3B434F" fill-rule="nonzero" d="M161.227 386.333a2.987 2.987 0 1 1 0 5.974 2.987 2.987 0 0 1 0-5.974zm0 19.627a2.987 2.987 0 1 1 0 5.973 2.987 2.987 0 0 1 0-5.973z"/><path fill="#3B434F" d="M195.787 346.227l-21.76 32.426c-5.92-18.347-23.04-11.52-23.04-11.52v54.189c0 1.413-1.338 2.558-2.987 2.558-1.65 0-2.987-1.145-2.987-2.558v-54.19c-.138-.055-17.123-6.751-23.011 11.521l-21.737-32.426s-8.408-21.377 17.048-30.72v-9.814h4.814v30.884c.618 5.316 4.278 20.464 25.873 25.436 21.618-4.972 25.283-20.12 25.901-25.436v-30.884h4.819v9.814c25.484 9.343 17.067 30.72 17.067 30.72zm-74.038 2.87c-1.16-1.314-2.831-4.577-2.831-4.577s-1.605-5.34-1.605-7.68v-10.822c-.363-4.881-1.278-4.965-1.278-4.965-18.994 9.356-10.655 23.894-10.655 23.894l15.77 24.746c6.157-10.434 12.785-8.533 12.785-8.533-5.852-2.983-9.69-7.612-12.186-12.063zM180 321.053s-.917.084-1.28 4.965v10.822c0 2.34-1.606 7.68-1.606 7.68s-1.673 3.263-2.835 4.577c-2.499 4.451-6.34 9.08-12.199 12.063 0 0 6.635-1.901 12.8 8.533l15.787-24.746s8.347-14.538-10.667-23.894z"/><path fill="#FFF" fill-rule="nonzero" d="M148.001 45.999c53.292 0 93.988 29.97 93.988 101.701l-2.324 61.963c-14.199 79.55-49.886 98.34-91.664 98.34-41.78 0-79.1-19.577-91.663-98.34L54.014 147.7C54.014 76.28 94.709 46 148 46z"/><path fill="#3B434F" d="M244.122 209.308c-14.89 82.908-52.311 102.492-96.12 102.492-43.813 0-82.946-20.404-96.12-102.492l-2.438-64.579c0-74.437 42.674-105.996 98.557-105.996S246.56 69.97 246.56 144.73l-2.437 64.58zM148.002 44.28c-52.247 0-92.145 30.276-92.145 101.69l2.279 61.955c12.317 78.753 48.904 98.328 89.865 98.328 40.959 0 75.946-18.788 89.866-98.328l2.278-61.955c0-71.723-39.897-101.69-92.144-101.69z"/><path fill="#3B434F" fill-rule="nonzero" d="M194.08 247.326c-7.755 6.734-25.272 13.14-45.653 13.14-20.382 0-37.898-6.406-45.654-13.14 0 0-.793-2.183.371-3.348 1.186-1.185 3.043-.927 3.043-.927 7.747 6.738 21.85 12.296 42.24 12.296 20.389 0 34.493-5.558 42.24-12.296 0 0 1.895-.704 2.815.216 1.773 1.773.598 4.059.598 4.059zm-59.733 23.38h27.306v4.267h-27.306v-4.266z"/><path fill="#FFF" fill-rule="nonzero" d="M49.807 153.313c-.012 0-1.047-.826-3.003-1.442a14.109 14.109 0 0 0-3.578-.623 14.539 14.539 0 0 0-2.181.067c-.758.08-1.54.226-2.327.452-3.15.906-6.365 3.108-8.253 7.652-.948 2.272-1.573 5.13-1.738 8.707a43.67 43.67 0 0 0-.036 2.819c.018.986.067 2.018.149 3.1a76.36 76.36 0 0 0 .898 7.095c-.01-.003-.41 7.77 2.368 16.7 2.613 8.733 8.886 19.46 20.467 22.524-1.332-22.179-1.373-44.774-2.766-67.05z"/><path fill="#3B434F" fill-rule="nonzero" d="M51.128 154.207s-20.177-6.251-19.466 14.491c0 0 3.003 30.077 4.308 32.85 0 0 7.924 17.511 21 18.287 12.782.759 0 0 0 0l.16 5.645s-22.985-2.947-27.424-29.435l-3.504-24.062s-2.72-31.845 23.67-23.748c25.708 7.888 0 0 0 0l1.256 5.972"/><path fill="#3B434F" fill-rule="nonzero" d="M44.468 195.995s-1.129.853-2.099.853c-.97 0-2.085-.853-2.085-.853l-2.082-20.983s2.872-10.333 15.063-4.873l.289 6s-10.696-3.793-10.475.93c.213 4.547 1.39 18.926 1.39 18.926zm200.015-41.74s20.264-6.247 19.551 14.482c0 0-3.017 30.056-4.327 32.827 0 0-7.959 17.5-21.093 18.275-12.837.758 0 0 0 0l-.16 5.641s23.086-2.945 27.545-29.415l3.519-24.046s2.732-31.823-23.773-23.732c-25.822 7.883 0 0 0 0l-1.262 5.969"/><path fill="#3B434F" fill-rule="nonzero" d="M251.171 196.015s1.134.853 2.109.853c.974 0 2.094-.853 2.094-.853l2.092-20.969s-2.886-10.326-15.13-4.869l-.29 5.996s10.743-3.79 10.52.93c-.213 4.543-1.395 18.912-1.395 18.912z"/><path fill="#FFF" fill-rule="nonzero" d="M244.343 153.35c.011 0 1.048-.831 3.006-1.45a14.08 14.08 0 0 1 3.582-.625 14.486 14.486 0 0 1 2.184.067 13.65 13.65 0 0 1 2.329.454c3.154.91 6.373 3.122 8.263 7.688.948 2.283 1.574 5.154 1.74 8.747.041.898.054 1.841.036 2.832-.019.99-.068 2.028-.15 3.115a76.968 76.968 0 0 1-.899 7.127c.01-.003.41 7.806-2.37 16.778-2.616 8.773-8.896 19.549-20.49 22.628 1.333-22.282 1.374-44.982 2.769-67.362z"/><path fill="#3B434F" fill-rule="nonzero" d="M244.923 154.256s20.264-6.248 19.551 14.48c0 0-3.017 30.057-4.327 32.828 0 0-7.958 17.5-21.093 18.275-12.837.758 0 0 0 0l-.16 5.641s23.086-2.945 27.545-29.415l3.519-24.046s2.733-31.823-23.773-23.732c-25.822 7.883 0 0 0 0l-1.262 5.969"/><path fill="#3B434F" fill-rule="nonzero" d="M251.611 196.015h4.203l2.092-20.969s-2.886-10.326-15.13-4.869l-.29 5.996s10.743-3.79 10.52.93c-.213 4.543-1.395 18.912-1.395 18.912z"/><path fill="#3B434F" d="M155.893 194.333h1.494c3.087 4.193 4.343 10.637 5.973 16.214.505 1.728.015 4.751-.427 5.973-1.617 4.476-6.697 4.395-10.88 6.4-1.123.538-1.958 1.468-3.413 1.707-.948-.836-2.093-1-2.56-2.347-1.152-1.587.333-2.578 1.493-3.2 2.107-1.13 8.608-2.243 9.387-4.267.963-1.095.323-4.39 0-5.546-.827-2.962-1.223-5.435-2.347-8.107-.746-1.775-2.056-3.646-1.28-5.76.644-.276 2.034-.59 2.56-1.067z"/><path fill="#3B434F" fill-rule="nonzero" d="M101.067 158.067a8.533 8.533 0 1 1 0 17.066 8.533 8.533 0 0 1 0-17.066zm94.72 0a8.533 8.533 0 1 1 0 17.066 8.533 8.533 0 0 1 0-17.066z"/><path fill="#EDF1F1" fill-rule="nonzero" d="M199.627 189.64c5.89 0 10.666 4.776 10.666 10.667 0 5.89-4.775 10.666-10.666 10.666s-10.667-4.775-10.667-10.666 4.776-10.667 10.667-10.667zm-103.254 0c5.891 0 10.667 4.776 10.667 10.667 0 5.89-4.776 10.666-10.667 10.666-5.89 0-10.666-4.775-10.666-10.666s4.775-10.667 10.666-10.667z"/><path fill="#3B434F" fill-rule="nonzero" d="M57.637 138.418s28.093-14.244 24.988-63.223c0 0 44.94 49.242 153.268 34.232l5.12 46.08s63.682-118-50.346-145.067C79.075-16.048 77.789 53.836 77.789 53.836s-34.222-5.113-37.08 28.194c-2.857 33.308 7.451 68.357 7.451 68.357l8.533 6.826.944-18.795z"/><path fill="#3B434F" d="M240.16 160.627l-6.4-48.214C125.433 125.558 85.612 81.595 85.612 81.595c-1.613 48.98-25.415 58.103-25.415 58.103L58.4 159.347l-11.947-6.827s-11.38-37.165-8.73-70.49C40.581 46.091 75.23 51.276 75.23 51.276s4.113-71.836 115.438-44.25c121.495 30.107 49.493 153.6 49.493 153.6zM189.813 13C77.908-12.128 80.16 57.8 80.16 57.8s-33.606-9.077-36.464 24.23c-2.857 33.308 6.597 66.223 6.597 66.223l3.84 2.987.518-14.53s28.14-9.671 24.988-67.915c0 0 40.162 52.62 158.814 37.645l4.267 38.4S294.597 36.528 189.813 13z"/><path fill="#3B434F" fill-rule="nonzero" d="M175.327 146.44s25.545-14.604 43.793 1.487l4.827.748s-6.183-22.497-51.2-7.869L174 145m1 0s25.987-14.926 43.12 3.927l8.827-.252s-11.009-24.032-56.2-8.869L175 146m-54.562.526s-25.459-14.476-43.646 1.472l-4.811.742s6.162-22.298 51.029-7.8l-1.25 4.157m-.996 0s-25.9-14.794-42.976 3.893l-8.797-.25s10.972-23.82 56.012-8.79l-4.239 6.139"/></g></svg>